<?xml version="1.0" encoding="utf-8"?>
<!-- Generator: Adobe Illustrator 24.3.0, SVG Export Plug-In . SVG Version: 6.00 Build 0)  -->
<svg version="1.1" id="Layer_1" xmlns="http://www.w3.org/2000/svg" xmlns:xlink="http://www.w3.org/1999/xlink" x="0px" y="0px"
	 viewBox="0 0 265 205" style="enable-background:new 0 0 265 205;" xml:space="preserve">
<style type="text/css">
	.st0{fill:#FEFDFD;}
	.st1{font-family:'HelveticaNeue-Medium';}
	.st2{font-size:24px;}
	.st3{fill-rule:evenodd;clip-rule:evenodd;fill:#FFFDFD;}
	.st4{fill:#1D1045;}
	.st5{fill:none;stroke:#1D1045;stroke-width:7;}
	.st6{fill-rule:evenodd;clip-rule:evenodd;fill:#9191A4;}
	.st7{fill-rule:evenodd;clip-rule:evenodd;fill:#F2A6A0;}
	.st8{fill-rule:evenodd;clip-rule:evenodd;fill:#14B7BE;}
	.st9{fill-rule:evenodd;clip-rule:evenodd;fill:#C49162;}
	.st10{fill-rule:evenodd;clip-rule:evenodd;fill:#DF6A88;}
	.st11{fill-rule:evenodd;clip-rule:evenodd;fill:#1D1045;}
	.st12{fill:#C49162;}
	.st13{fill:#DF6A88;}
	.st14{fill:#F2A6A0;}
	.st15{fill:#14B7BE;}
	.st16{fill:#9191A4;}
</style>
<desc>Created with Sketch.</desc>
<g id="iPhone12">
	<g id="LogIn" transform="translate(-63.000000, -303.000000)">
		<text transform="matrix(1 0 0 1 162.0565 470)" class="st0 st1 st2">Log In</text>
		<g id="Group-8" transform="translate(63.000000, 303.000000)">
			<g id="logo1">
				<rect id="Rectangle_1_" class="st3" width="265" height="201"/>
				<path id="CENEM" class="st4" d="M53.8,153c2.4,0,4.5-0.4,6.4-1.1c1.9-0.7,3.6-1.8,5-3.2c1.4-1.4,2.6-3.1,3.5-5
					c0.9-2,1.5-4.2,1.7-6.7h-3.8c-0.2,1.8-0.6,3.5-1.3,5s-1.5,2.9-2.6,4.1c-1.1,1.2-2.4,2.1-3.9,2.7c-1.5,0.7-3.2,1-5,1
					c-2.7,0-4.9-0.5-6.8-1.5s-3.5-2.3-4.7-4s-2.1-3.5-2.7-5.7c-0.6-2.1-0.9-4.2-0.9-6.4c0-2.2,0.3-4.3,0.9-6.4
					c0.6-2.1,1.5-4,2.7-5.6s2.8-3,4.7-4c1.9-1,4.2-1.5,6.8-1.5c1.5,0,2.8,0.2,4.2,0.6c1.3,0.4,2.5,1.1,3.6,1.9
					c1.1,0.8,2,1.8,2.8,3.1c0.8,1.2,1.3,2.6,1.7,4.1h3.8c-0.3-2.1-0.9-3.9-1.9-5.5c-1-1.6-2.2-3-3.7-4.1c-1.5-1.1-3.1-1.9-4.9-2.5
					c-1.8-0.6-3.7-0.8-5.6-0.8c-3.1,0-5.9,0.6-8.3,1.7s-4.3,2.7-5.9,4.6c-1.6,1.9-2.7,4.1-3.5,6.6c-0.8,2.5-1.2,5.1-1.2,7.9
					c0,2.8,0.4,5.4,1.2,7.9c0.8,2.5,2,4.7,3.5,6.6c1.6,1.9,3.5,3.4,5.9,4.6S50.7,153,53.8,153z M104.5,152.2V149H80.5v-15.8h22.3
					v-3.2H80.5v-14.4h23.8v-3.2H76.7v40H104.5z M114,152.2v-33.8h0.1l23.3,33.8h4.3v-40h-3.8v33.8h-0.1l-23.3-33.8h-4.3v40H114z
					 M178,152.2V149h-24.1v-15.8h22.3v-3.2h-22.3v-14.4h23.8v-3.2h-27.6v40H178z M191.7,152.2v-28.1h0.1l9.8,28.1h6.8l9.8-28.3h0.1
					v28.3h8.2v-40h-12.4l-8.8,27.5h-0.1l-9.4-27.5h-12.4v40H191.7z"/>
				<polyline id="Path-2" class="st5" points="4,61.9 4,115.7 29.8,115.7 				"/>
				<polyline id="Path-2_1_" class="st5" points="235.4,115.7 260.9,115.7 260.9,62.9 				"/>
				<polyline id="Path-2_2_" class="st5" points="239,140.7 239,149 260.9,149 260.9,200.7 4,200.7 4,149 26.8,149 26.8,140.7 				
					"/>
				<polyline id="Path-3" class="st5" points="4,124.1 4,131.7 30.5,131.7 				"/>
				<polyline id="Path-3_1_" class="st5" points="239,124.1 239,131.7 264.5,131.7 				"/>
				<polygon id="Path-5" class="st6" points="0,0 27.7,0 49.2,26.7 27.7,55 0.9,55 				"/>
				<polygon id="Path-5_1_" class="st7" points="264.2,0 229.9,0 251.3,26.7 229.9,55 264.2,55 				"/>
				<polygon id="Path-5_2_" class="st8" points="51.9,0 88,0 109.4,26.7 88,55 51.9,55 72.1,26.7 				"/>
				<polygon id="Path-5_3_" class="st9" points="110.9,0 147,0 168.4,26.7 147,55 110.9,55 131.1,26.7 				"/>
				<polygon id="Path-5_4_" class="st10" points="170.9,0 207,0 228.4,26.7 207,55 170.9,55 191.1,26.7 				"/>
			</g>
			<g id="logo1_1_">
				<rect id="Rectangle_2_" class="st3" width="265" height="201"/>
				<polyline id="Path-2_3_" class="st5" points="4,61.9 4,115.7 29.8,115.7 				"/>
				<polyline id="Path-2_4_" class="st5" points="235.4,115.7 260.9,115.7 260.9,62.9 				"/>
				<polyline id="Path-2_5_" class="st5" points="239,140.7 239,149 260.9,149 260.9,200.7 4,200.7 4,149 26.8,149 26.8,140.7 				
					"/>
				<polyline id="Path-3_2_" class="st5" points="4,124.1 4,131.7 30.5,131.7 				"/>
				<polyline id="Path-3_3_" class="st5" points="239,124.1 239,131.7 264.5,131.7 				"/>
				<polygon id="Path-5_5_" class="st11" points="0,0 27.7,0 49.2,26.7 27.7,55 0.9,55 				"/>
				<polygon id="Path-5_6_" class="st11" points="264.2,0 229.9,0 251.3,26.7 229.9,55 264.2,55 				"/>
				<polygon id="Path-5_7_" class="st11" points="51.9,0 88,0 109.4,26.7 88,55 51.9,55 72.1,26.7 				"/>
				<polygon id="Path-5_8_" class="st11" points="110.9,0 147,0 168.4,26.7 147,55 110.9,55 131.1,26.7 				"/>
				<polygon id="Path-5_9_" class="st11" points="170.9,0 207,0 228.4,26.7 207,55 170.9,55 191.1,26.7 				"/>
			</g>
			<path id="Path" class="st12" d="M55.3,154c2.4,0,4.5-0.4,6.4-1.1c1.9-0.7,3.6-1.8,5-3.2c1.4-1.4,2.6-3.1,3.5-5
				c0.9-2,1.5-4.2,1.7-6.7h-3.8c-0.2,1.8-0.6,3.5-1.3,5c-0.7,1.5-1.5,2.9-2.6,4.1c-1.1,1.2-2.4,2.1-3.9,2.7c-1.5,0.7-3.2,1-5,1
				c-2.7,0-4.9-0.5-6.8-1.5c-1.9-1-3.5-2.3-4.7-4s-2.1-3.5-2.7-5.7c-0.6-2.1-0.9-4.2-0.9-6.4c0-2.2,0.3-4.3,0.9-6.4
				c0.6-2.1,1.5-4,2.7-5.6s2.8-3,4.7-4c1.9-1,4.2-1.5,6.8-1.5c1.5,0,2.8,0.2,4.2,0.6c1.3,0.4,2.5,1.1,3.6,1.9c1.1,0.8,2,1.8,2.8,3.1
				s1.3,2.6,1.7,4.1h3.8c-0.3-2.1-0.9-3.9-1.9-5.5c-1-1.6-2.2-3-3.7-4.1c-1.5-1.1-3.1-1.9-4.9-2.5c-1.8-0.6-3.7-0.8-5.6-0.8
				c-3.1,0-5.9,0.6-8.3,1.7s-4.3,2.7-5.9,4.6s-2.7,4.1-3.5,6.6c-0.8,2.5-1.2,5.1-1.2,7.9c0,2.8,0.4,5.4,1.2,7.9
				c0.8,2.5,2,4.7,3.5,6.6c1.6,1.9,3.5,3.4,5.9,4.6S52.2,154,55.3,154z"/>
			<polygon id="Path_1_" class="st13" points="106,153.2 106,150 81.9,150 81.9,134.2 104.2,134.2 104.2,130.9 81.9,130.9 
				81.9,116.5 105.7,116.5 105.7,113.2 78.1,113.2 78.1,153.2 			"/>
			<polygon id="Path_2_" class="st14" points="115.5,153.2 115.5,119.4 115.6,119.4 138.9,153.2 143.1,153.2 143.1,113.2 
				139.3,113.2 139.3,147.1 139.2,147.1 115.9,113.2 111.7,113.2 111.7,153.2 			"/>
			<polygon id="Path_3_" class="st15" points="179.4,153.2 179.4,150 155.4,150 155.4,134.2 177.6,134.2 177.6,130.9 155.4,130.9 
				155.4,116.5 179.2,116.5 179.2,113.2 151.5,113.2 151.5,153.2 			"/>
			<polygon id="Path_4_" class="st16" points="193.2,153.2 193.2,125.2 193.3,125.2 203.1,153.2 209.9,153.2 219.7,124.9 
				219.8,124.9 219.8,153.2 228,153.2 228,113.2 215.7,113.2 206.8,140.7 206.7,140.7 197.4,113.2 185,113.2 185,153.2 			"/>
		</g>
	</g>
</g>
</svg>
