<?xml version="1.0" encoding="UTF-8"?>
<svg width="265px" height="205px" viewBox="0 0 265 205" version="1.1" xmlns="http://www.w3.org/2000/svg" xmlns:xlink="http://www.w3.org/1999/xlink">
    <!-- Generator: Sketch 53.2 (72643) - https://sketchapp.com -->
    <title>logo_sceneMe_dark</title>
    <desc>Created with Sketch.</desc>
    <g id="Page-1" stroke="none" stroke-width="1" fill="none" fill-rule="evenodd">
        <g id="logo_sceneMe_dark">
            <text id="Log-In" fill="#FEFDFD" font-family="Helvetica" font-size="24" font-weight="normal">
                <tspan x="99.1782178" y="166.782178">Log In</tspan>
            </text>
            <g id="Group-8">
                <g id="logo1">
                    <rect id="Rectangle_1_" fill="#FFFDFD" x="0" y="0" width="265" height="200.980198"></rect>
                    <path d="M53.8,152.984927 C56.2,152.984927 58.3,152.584966 60.2,151.885035 C62.1,151.185104 63.8,150.085213 65.2,148.68535 C66.6,147.285488 67.8,145.585656 68.7,143.685843 C69.6,141.68604 70.2,139.486257 70.4,136.986503 L66.6,136.986503 C66.4,138.786326 66,140.486158 65.3,141.986011 C64.6,143.485863 63.8,144.885725 62.7,146.085607 C61.6,147.285488 60.3,148.1854 58.8,148.785341 C57.3,149.485272 55.6,149.785242 53.8,149.785242 C51.1,149.785242 48.9,149.285291 47,148.28539 C45.1,147.285488 43.5,145.985616 42.3,144.285784 C41.1,142.585951 40.2,140.786129 39.6,138.586346 C39,136.486552 38.7,134.386759 38.7,132.186976 C38.7,129.987193 39,127.8874 39.6,125.787607 C40.2,123.687813 41.1,121.788001 42.3,120.188158 C43.5,118.588316 45.1,117.188454 47,116.188552 C48.9,115.188651 51.2,114.6887 53.8,114.6887 C55.3,114.6887 56.6,114.88868 58,115.288641 C59.3,115.688602 60.5,116.388533 61.6,117.188454 C62.7,117.988375 63.6,118.988276 64.4,120.288148 C65.2,121.48803 65.7,122.887892 66.1,124.387744 L69.9,124.387744 C69.6,122.287951 69,120.488129 68,118.888286 C67,117.288444 65.8,115.888582 64.3,114.78869 C62.8,113.688799 61.2,112.888877 59.4,112.288937 C57.6,111.688996 55.7,111.489015 53.8,111.489015 C50.7,111.489015 47.9,112.088956 45.5,113.188848 C43.1,114.288739 41.2,115.888582 39.6,117.788395 C38,119.688207 36.9,121.887991 36.1,124.387744 C35.3,126.887498 34.9,129.487242 34.9,132.286966 C34.9,135.08669 35.3,137.686434 36.1,140.186188 C36.9,142.685942 38.1,144.885725 39.6,146.785538 C41.2,148.68535 43.1,150.185203 45.5,151.385084 C47.9,152.584966 50.7,152.984927 53.8,152.984927 Z M104.5,152.185006 L104.5,148.985321 L80.5,148.985321 L80.5,133.186877 L102.8,133.186877 L102.8,129.987193 L80.5,129.987193 L80.5,115.588611 L104.3,115.588611 L104.3,112.388927 L76.7,112.388927 L76.7,152.384986 L104.5,152.384986 L104.5,152.185006 Z M114,152.185006 L114,118.388336 L114.1,118.388336 L137.4,152.185006 L141.7,152.185006 L141.7,112.188946 L137.9,112.188946 L137.9,145.985616 L137.8,145.985616 L114.5,112.188946 L110.2,112.188946 L110.2,152.185006 L114,152.185006 Z M178,152.185006 L178,148.985321 L153.9,148.985321 L153.9,133.186877 L176.2,133.186877 L176.2,129.987193 L153.9,129.987193 L153.9,115.588611 L177.7,115.588611 L177.7,112.388927 L150.1,112.388927 L150.1,152.384986 L178,152.384986 L178,152.185006 Z M191.7,152.185006 L191.7,124.087774 L191.8,124.087774 L201.6,152.185006 L208.4,152.185006 L218.2,123.887794 L218.3,123.887794 L218.3,152.185006 L226.5,152.185006 L226.5,112.188946 L214.1,112.188946 L205.3,139.686237 L205.2,139.686237 L195.8,112.188946 L183.4,112.188946 L183.4,152.185006 L191.7,152.185006 Z" id="CENEM" fill="#1D1045" fill-rule="nonzero"></path>
                    <polyline id="Path-2" stroke="#1D1045" stroke-width="7" points="4 61.8939018 4 115.688602 29.8 115.688602"></polyline>
                    <polyline id="Path-2_1_" stroke="#1D1045" stroke-width="7" points="235.4 115.688602 260.9 115.688602 260.9 62.8938033"></polyline>
                    <polyline id="Path-2_2_" stroke="#1D1045" stroke-width="7" points="239 140.686139 239 148.985321 260.9 148.985321 260.9 200.680228 4 200.680228 4 148.985321 26.8 148.985321 26.8 140.686139"></polyline>
                    <polyline id="Path-3" stroke="#1D1045" stroke-width="7" points="4 124.087774 4 131.687025 30.5 131.687025"></polyline>
                    <polyline id="Path-3_1_" stroke="#1D1045" stroke-width="7" points="239 124.087774 239 131.687025 264.5 131.687025"></polyline>
                    <polygon id="Path-5" fill="#9191A4" points="0 0 27.7 0 49.2 26.6973696 27.7 54.9945815 0.9 54.9945815"></polygon>
                    <polygon id="Path-5_1_" fill="#F2A6A0" points="264.2 0 229.9 0 251.3 26.6973696 229.9 54.9945815 264.2 54.9945815"></polygon>
                    <polygon id="Path-5_2_" fill="#14B7BE" points="51.9 0 88 0 109.4 26.6973696 88 54.9945815 51.9 54.9945815 72.1 26.6973696"></polygon>
                    <polygon id="Path-5_3_" fill="#C49162" points="110.9 0 147 0 168.4 26.6973696 147 54.9945815 110.9 54.9945815 131.1 26.6973696"></polygon>
                    <polygon id="Path-5_4_" fill="#DF6A88" points="170.9 0 207 0 228.4 26.6973696 207 54.9945815 170.9 54.9945815 191.1 26.6973696"></polygon>
                </g>
                <g id="logo1_1_">
                    <rect id="Rectangle_2_" fill="#1D1045" x="0" y="0" width="265" height="200.980198"></rect>
                    <polyline id="Path-2_3_" stroke="#FFFFFF" stroke-width="7" points="4 61.8939018 4 115.688602 29.8 115.688602"></polyline>
                    <polyline id="Path-2_4_" stroke="#FFFFFF" stroke-width="7" points="235.4 115.688602 260.9 115.688602 260.9 62.8938033"></polyline>
                    <polyline id="Path-2_5_" stroke="#FFFFFF" stroke-width="7" points="239 140.686139 239 148.985321 260.9 148.985321 260.9 200.680228 4 200.680228 4 148.985321 26.8 148.985321 26.8 140.686139"></polyline>
                    <polyline id="Path-3_2_" stroke="#FFFFFF" stroke-width="7" points="4 124.087774 4 131.687025 30.5 131.687025"></polyline>
                    <polyline id="Path-3_3_" stroke="#FFFFFF" stroke-width="7" points="239 124.087774 239 131.687025 264.5 131.687025"></polyline>
                    <polygon id="Path-5_5_" fill="#FFFFFF" points="0 0 27.7 0 49.2 26.6973696 27.7 54.9945815 0.9 54.9945815"></polygon>
                    <polygon id="Path-5_6_" fill="#FFFFFF" points="264.2 0 229.9 0 251.3 26.6973696 229.9 54.9945815 264.2 54.9945815"></polygon>
                    <polygon id="Path-5_7_" fill="#FFFFFF" points="51.9 0 88 0 109.4 26.6973696 88 54.9945815 51.9 54.9945815 72.1 26.6973696"></polygon>
                    <polygon id="Path-5_8_" fill="#FFFFFF" points="110.9 0 147 0 168.4 26.6973696 147 54.9945815 110.9 54.9945815 131.1 26.6973696"></polygon>
                    <polygon id="Path-5_9_" fill="#FFFFFF" points="170.9 0 207 0 228.4 26.6973696 207 54.9945815 170.9 54.9945815 191.1 26.6973696"></polygon>
                </g>
                <path d="M55.3,153.984828 C57.7,153.984828 59.8,153.584868 61.7,152.884937 C63.6,152.185006 65.3,151.085114 66.7,149.685252 C68.1,148.28539 69.3,146.585557 70.2,144.685745 C71.1,142.685942 71.7,140.486158 71.9,137.986405 L68.1,137.986405 C67.9,139.786227 67.5,141.48606 66.8,142.985912 C66.1,144.485764 65.3,145.885626 64.2,147.085508 C63.1,148.28539 61.8,149.185301 60.3,149.785242 C58.8,150.485173 57.1,150.785144 55.3,150.785144 C52.6,150.785144 50.4,150.285193 48.5,149.285291 C46.6,148.28539 45,146.985518 43.8,145.285685 C42.6,143.585853 41.7,141.78603 41.1,139.586247 C40.5,137.486454 40.2,135.386661 40.2,133.186877 C40.2,130.987094 40.5,128.887301 41.1,126.787508 C41.7,124.687715 42.6,122.787902 43.8,121.18806 C45,119.588217 46.6,118.188355 48.5,117.188454 C50.4,116.188552 52.7,115.688602 55.3,115.688602 C56.8,115.688602 58.1,115.888582 59.5,116.288542 C60.8,116.688503 62,117.388434 63.1,118.188355 C64.2,118.988276 65.1,119.988178 65.9,121.28805 C66.7,122.587922 67.2,123.887794 67.6,125.387646 L71.4,125.387646 C71.1,123.287853 70.5,121.48803 69.5,119.888188 C68.5,118.288345 67.3,116.888483 65.8,115.788592 C64.3,114.6887 62.7,113.888779 60.9,113.288838 C59.1,112.688897 57.2,112.488917 55.3,112.488917 C52.2,112.488917 49.4,113.088858 47,114.188749 C44.6,115.288641 42.7,116.888483 41.1,118.788296 C39.5,120.688109 38.4,122.887892 37.6,125.387646 C36.8,127.8874 36.4,130.487143 36.4,133.286868 C36.4,136.086592 36.8,138.686336 37.6,141.186089 C38.4,143.685843 39.6,145.885626 41.1,147.785439 C42.7,149.685252 44.6,151.185104 47,152.384986 C49.4,153.584868 52.2,153.984828 55.3,153.984828 Z" id="Path" fill="#C49162" fill-rule="nonzero"></path>
                <polygon id="Path_1_" fill="#DF6A88" fill-rule="nonzero" points="106 153.184907 106 149.985222 81.9 149.985222 81.9 134.186779 104.2 134.186779 104.2 130.887104 81.9 130.887104 81.9 116.488523 105.7 116.488523 105.7 113.188848 78.1 113.188848 78.1 153.184907"></polygon>
                <polygon id="Path_2_" fill="#F2A6A0" fill-rule="nonzero" points="115.5 153.184907 115.5 119.388237 115.6 119.388237 138.9 153.184907 143.1 153.184907 143.1 113.188848 139.3 113.188848 139.3 147.085508 139.2 147.085508 115.9 113.188848 111.7 113.188848 111.7 153.184907"></polygon>
                <polygon id="Path_3_" fill="#14B7BE" fill-rule="nonzero" points="179.4 153.184907 179.4 149.985222 155.4 149.985222 155.4 134.186779 177.6 134.186779 177.6 130.887104 155.4 130.887104 155.4 116.488523 179.2 116.488523 179.2 113.188848 151.5 113.188848 151.5 153.184907"></polygon>
                <polygon id="Path_4_" fill="#9191A4" fill-rule="nonzero" points="193.2 153.184907 193.2 125.187666 193.3 125.187666 203.1 153.184907 209.9 153.184907 219.7 124.887695 219.8 124.887695 219.8 153.184907 228 153.184907 228 113.188848 215.7 113.188848 206.8 140.686139 206.7 140.686139 197.4 113.188848 185 113.188848 185 153.184907"></polygon>
            </g>
        </g>
    </g>
</svg>