<?xml version="1.0" encoding="UTF-8"?>
<svg width="2004px" height="1024px" viewBox="0 0 2004 1024" version="1.1" xmlns="http://www.w3.org/2000/svg" xmlns:xlink="http://www.w3.org/1999/xlink">
    <!-- Generator: Sketch 53.2 (72643) - https://sketchapp.com -->
    <title>Icon</title>
    <desc>Created with Sketch.</desc>
    <g id="Icon" stroke="none" stroke-width="1" fill="none" fill-rule="evenodd">
        <g id="logo_sceneMe" transform="translate(940.000000, 186.000000)">
            <text id="Log-In" fill="#FEFDFD" font-family="Helvetica" font-size="24" font-weight="normal">
                <tspan x="322" y="490">Log In</tspan>
            </text>
            <g id="Group-8">
                <g id="logo1">
                    <rect id="Rectangle_1_" fill="#FFFDFD" x="0" y="0" width="860" height="653"></rect>
                    <path d="M174.596226,497.059701 C182.384906,497.059701 189.2,495.760199 195.366038,493.48607 C201.532075,491.21194 207.049057,487.638308 211.592453,483.09005 C216.135849,478.541791 220.030189,473.018905 222.950943,466.846269 C225.871698,460.348756 227.818868,453.201493 228.467925,445.079602 L216.135849,445.079602 C215.486792,450.927363 214.188679,456.450249 211.916981,461.323383 C209.645283,466.196517 207.049057,470.744776 203.479245,474.643284 C199.909434,478.541791 195.690566,481.465672 190.822642,483.414925 C185.954717,485.689055 180.437736,486.663682 174.596226,486.663682 C165.833962,486.663682 158.69434,485.039303 152.528302,481.790547 C146.362264,478.541791 141.169811,474.318408 137.275472,468.795522 C133.381132,463.272637 130.460377,457.424876 128.513208,450.277612 C126.566038,443.455224 125.592453,436.632836 125.592453,429.485572 C125.592453,422.338308 126.566038,415.51592 128.513208,408.693532 C130.460377,401.871144 133.381132,395.698507 137.275472,390.500498 C141.169811,385.302488 146.362264,380.754229 152.528302,377.505473 C158.69434,374.256716 166.158491,372.632338 174.596226,372.632338 C179.464151,372.632338 183.683019,373.28209 188.226415,374.581592 C192.445283,375.881095 196.339623,378.155224 199.909434,380.754229 C203.479245,383.353234 206.4,386.60199 208.996226,390.825373 C211.592453,394.723881 213.215094,399.272139 214.513208,404.145274 L226.845283,404.145274 C225.871698,397.322886 223.924528,391.475124 220.679245,386.277114 C217.433962,381.079104 213.539623,376.530846 208.671698,372.957214 C203.803774,369.383582 198.611321,366.784577 192.769811,364.835323 C186.928302,362.88607 180.762264,362.236318 174.596226,362.236318 C164.535849,362.236318 155.449057,364.185572 147.660377,367.759204 C139.871698,371.332836 133.70566,376.530846 128.513208,382.703483 C123.320755,388.876119 119.750943,396.023383 117.154717,404.145274 C114.558491,412.267164 113.260377,420.71393 113.260377,429.810448 C113.260377,438.906965 114.558491,447.353731 117.154717,455.475622 C119.750943,463.597512 123.645283,470.744776 128.513208,476.917413 C133.70566,483.09005 139.871698,487.963184 147.660377,491.861692 C155.449057,495.760199 164.535849,497.059701 174.596226,497.059701 Z M339.132075,494.460697 L339.132075,484.064677 L261.245283,484.064677 L261.245283,432.734328 L333.615094,432.734328 L333.615094,422.338308 L261.245283,422.338308 L261.245283,375.556219 L338.483019,375.556219 L338.483019,365.160199 L248.913208,365.160199 L248.913208,495.110448 L339.132075,495.110448 L339.132075,494.460697 Z M369.962264,494.460697 L369.962264,384.652736 L370.286792,384.652736 L445.901887,494.460697 L459.856604,494.460697 L459.856604,364.510448 L447.524528,364.510448 L447.524528,474.318408 L447.2,474.318408 L371.584906,364.510448 L357.630189,364.510448 L357.630189,494.460697 L369.962264,494.460697 Z M577.660377,494.460697 L577.660377,484.064677 L499.449057,484.064677 L499.449057,432.734328 L571.818868,432.734328 L571.818868,422.338308 L499.449057,422.338308 L499.449057,375.556219 L576.686792,375.556219 L576.686792,365.160199 L487.116981,365.160199 L487.116981,495.110448 L577.660377,495.110448 L577.660377,494.460697 Z M622.120755,494.460697 L622.120755,403.170647 L622.445283,403.170647 L654.249057,494.460697 L676.316981,494.460697 L708.120755,402.520896 L708.445283,402.520896 L708.445283,494.460697 L735.056604,494.460697 L735.056604,364.510448 L694.815094,364.510448 L666.256604,453.851244 L665.932075,453.851244 L635.426415,364.510448 L595.184906,364.510448 L595.184906,494.460697 L622.120755,494.460697 Z" id="CENEM" fill="#1D1045" fill-rule="nonzero"></path>
                    <polyline id="Path-2" stroke="#1D1045" stroke-width="7" points="12.9811321 201.09801 12.9811321 375.881095 96.709434 375.881095"></polyline>
                    <polyline id="Path-2_1_" stroke="#1D1045" stroke-width="7" points="763.939623 375.881095 846.69434 375.881095 846.69434 204.346766"></polyline>
                    <polyline id="Path-2_2_" stroke="#1D1045" stroke-width="7" points="775.622642 457.1 775.622642 484.064677 846.69434 484.064677 846.69434 652.025373 12.9811321 652.025373 12.9811321 484.064677 86.9735849 484.064677 86.9735849 457.1"></polyline>
                    <polyline id="Path-3" stroke="#1D1045" stroke-width="7" points="12.9811321 403.170647 12.9811321 427.861194 98.9811321 427.861194"></polyline>
                    <polyline id="Path-3_1_" stroke="#1D1045" stroke-width="7" points="775.622642 403.170647 775.622642 427.861194 858.377358 427.861194"></polyline>
                    <polygon id="Path-5" fill="#9191A4" points="0 0 89.8943396 0 159.667925 86.741791 89.8943396 178.681592 2.92075472 178.681592"></polygon>
                    <polygon id="Path-5_1_" fill="#F2A6A0" points="857.403774 0 746.090566 0 815.539623 86.741791 746.090566 178.681592 857.403774 178.681592"></polygon>
                    <polygon id="Path-5_2_" fill="#14B7BE" points="168.430189 0 285.584906 0 355.033962 86.741791 285.584906 178.681592 168.430189 178.681592 233.984906 86.741791"></polygon>
                    <polygon id="Path-5_3_" fill="#C49162" points="359.901887 0 477.056604 0 546.50566 86.741791 477.056604 178.681592 359.901887 178.681592 425.456604 86.741791"></polygon>
                    <polygon id="Path-5_4_" fill="#DF6A88" points="554.618868 0 671.773585 0 741.222642 86.741791 671.773585 178.681592 554.618868 178.681592 620.173585 86.741791"></polygon>
                </g>
                <g id="logo1_1_">
                    <rect id="Rectangle_2_" fill="#FFFDFD" x="0" y="0" width="860" height="653"></rect>
                    <polyline id="Path-2_3_" stroke="#1D1045" stroke-width="7" points="12.9811321 201.09801 12.9811321 375.881095 96.709434 375.881095"></polyline>
                    <polyline id="Path-2_4_" stroke="#1D1045" stroke-width="7" points="763.939623 375.881095 846.69434 375.881095 846.69434 204.346766"></polyline>
                    <polyline id="Path-2_5_" stroke="#1D1045" stroke-width="7" points="775.622642 457.1 775.622642 484.064677 846.69434 484.064677 846.69434 652.025373 12.9811321 652.025373 12.9811321 484.064677 86.9735849 484.064677 86.9735849 457.1"></polyline>
                    <polyline id="Path-3_2_" stroke="#1D1045" stroke-width="7" points="12.9811321 403.170647 12.9811321 427.861194 98.9811321 427.861194"></polyline>
                    <polyline id="Path-3_3_" stroke="#1D1045" stroke-width="7" points="775.622642 403.170647 775.622642 427.861194 858.377358 427.861194"></polyline>
                    <polygon id="Path-5_5_" fill="#1D1045" points="0 0 89.8943396 0 159.667925 86.741791 89.8943396 178.681592 2.92075472 178.681592"></polygon>
                    <polygon id="Path-5_6_" fill="#1D1045" points="857.403774 0 746.090566 0 815.539623 86.741791 746.090566 178.681592 857.403774 178.681592"></polygon>
                    <polygon id="Path-5_7_" fill="#1D1045" points="168.430189 0 285.584906 0 355.033962 86.741791 285.584906 178.681592 168.430189 178.681592 233.984906 86.741791"></polygon>
                    <polygon id="Path-5_8_" fill="#1D1045" points="359.901887 0 477.056604 0 546.50566 86.741791 477.056604 178.681592 359.901887 178.681592 425.456604 86.741791"></polygon>
                    <polygon id="Path-5_9_" fill="#1D1045" points="554.618868 0 671.773585 0 741.222642 86.741791 671.773585 178.681592 554.618868 178.681592 620.173585 86.741791"></polygon>
                </g>
                <path d="M179.464151,500.308458 C187.25283,500.308458 194.067925,499.008955 200.233962,496.734826 C206.4,494.460697 211.916981,490.887065 216.460377,486.338806 C221.003774,481.790547 224.898113,476.267662 227.818868,470.095025 C230.739623,463.597512 232.686792,456.450249 233.335849,448.328358 L221.003774,448.328358 C220.354717,454.176119 219.056604,459.699005 216.784906,464.572139 C214.513208,469.445274 211.916981,473.993532 208.34717,477.89204 C204.777358,481.790547 200.558491,484.714428 195.690566,486.663682 C190.822642,488.937811 185.30566,489.912438 179.464151,489.912438 C170.701887,489.912438 163.562264,488.28806 157.396226,485.039303 C151.230189,481.790547 146.037736,477.567164 142.143396,472.044279 C138.249057,466.521393 135.328302,460.673632 133.381132,453.526368 C131.433962,446.70398 130.460377,439.881592 130.460377,432.734328 C130.460377,425.587065 131.433962,418.764677 133.381132,411.942289 C135.328302,405.1199 138.249057,398.947264 142.143396,393.749254 C146.037736,388.551244 151.230189,384.002985 157.396226,380.754229 C163.562264,377.505473 171.026415,375.881095 179.464151,375.881095 C184.332075,375.881095 188.550943,376.530846 193.09434,377.830348 C197.313208,379.129851 201.207547,381.40398 204.777358,384.002985 C208.34717,386.60199 211.267925,389.850746 213.864151,394.074129 C216.460377,398.297512 218.083019,402.520896 219.381132,407.39403 L231.713208,407.39403 C230.739623,400.571642 228.792453,394.723881 225.54717,389.525871 C222.301887,384.327861 218.407547,379.779602 213.539623,376.20597 C208.671698,372.632338 203.479245,370.033333 197.637736,368.08408 C191.796226,366.134826 185.630189,365.485075 179.464151,365.485075 C169.403774,365.485075 160.316981,367.434328 152.528302,371.00796 C144.739623,374.581592 138.573585,379.779602 133.381132,385.952239 C128.188679,392.124876 124.618868,399.272139 122.022642,407.39403 C119.426415,415.51592 118.128302,423.962687 118.128302,433.059204 C118.128302,442.155721 119.426415,450.602488 122.022642,458.724378 C124.618868,466.846269 128.513208,473.993532 133.381132,480.166169 C138.573585,486.338806 144.739623,491.21194 152.528302,495.110448 C160.316981,499.008955 169.403774,500.308458 179.464151,500.308458 Z" id="Path" fill="#C49162" fill-rule="nonzero"></path>
                <polygon id="Path_1_" fill="#DF6A88" fill-rule="nonzero" points="344 497.709453 344 487.313433 265.788679 487.313433 265.788679 435.983085 338.158491 435.983085 338.158491 425.262189 265.788679 425.262189 265.788679 378.4801 343.026415 378.4801 343.026415 367.759204 253.456604 367.759204 253.456604 497.709453"></polygon>
                <polygon id="Path_2_" fill="#F2A6A0" fill-rule="nonzero" points="374.830189 497.709453 374.830189 387.901493 375.154717 387.901493 450.769811 497.709453 464.4 497.709453 464.4 367.759204 452.067925 367.759204 452.067925 477.89204 451.743396 477.89204 376.128302 367.759204 362.498113 367.759204 362.498113 497.709453"></polygon>
                <polygon id="Path_3_" fill="#14B7BE" fill-rule="nonzero" points="582.203774 497.709453 582.203774 487.313433 504.316981 487.313433 504.316981 435.983085 576.362264 435.983085 576.362264 425.262189 504.316981 425.262189 504.316981 378.4801 581.554717 378.4801 581.554717 367.759204 491.660377 367.759204 491.660377 497.709453"></polygon>
                <polygon id="Path_4_" fill="#9191A4" fill-rule="nonzero" points="626.988679 497.709453 626.988679 406.744279 627.313208 406.744279 659.116981 497.709453 681.184906 497.709453 712.988679 405.769652 713.313208 405.769652 713.313208 497.709453 739.924528 497.709453 739.924528 367.759204 700.007547 367.759204 671.124528 457.1 670.8 457.1 640.618868 367.759204 600.377358 367.759204 600.377358 497.709453"></polygon>
            </g>
        </g>
        <text id="MADE-WITH" font-family="Roboto-Light, Roboto" font-size="180" font-weight="300" letter-spacing="0.09444465" fill="#4680BF">
            <tspan x="248.815994" y="469">MADE </tspan>
            <tspan x="273.029861" y="680">WITH</tspan>
        </text>
    </g>
</svg>